# xmcd
#
# Track frame offsets:
# 150
# 13103
# 26763
# 45725
# 57751
# 71190
# 78532
# 91495
# 101617
# 114895
# 132334
# 137407
# 147323
# 165428
# 178400
# 190083
#
# Disc length: 2676 seconds
#
#
# Revision: 0
# Processed by: cddbd v1.5.2PL0 Copyright (c) Steve Scherf et al.
# Submitted via: FreeRIP 2.951 
#
DISCID=de0a7210
DTITLE=Jack Johnson - On and On
DYEAR=1900
DGENRE=Chill
TTITLE0=Times like These
TTITLE1=The Horizon has been
TTITLE2=Traffic in the sky
TTITLE3=Taylor
TTITLE4=Gone
TTITLE5=Cupid
TTITLE6=Wasting time
TTITLE7=Holes to Heaven
TTITLE8=Dreams be Dreams
TTITLE9=Tomorrow Morning
TTITLE10=Fall line
TTITLE11=Cookie Jar
TTITLE12=Rodeo Clowns
TTITLE13=Cocoon
TTITLE14=Mediocre bad guys
TTITLE15=Symbol in my Driveway
EXTD=
EXTT0=
EXTT1=
EXTT2=
EXTT3=
EXTT4=
EXTT5=
EXTT6=
EXTT7=
EXTT8=
EXTT9=
EXTT10=
EXTT11=
EXTT12=
EXTT13=
EXTT14=
EXTT15=
PLAYORDER=
